<?xml version="1.0" encoding="UTF-8" standalone="no"?>
<!-- Created with Inkscape (http://www.inkscape.org/) -->

<svg
   width="199.78384mm"
   height="200.81427mm"
   viewBox="0 0 199.78384 200.81427"
   version="1.1"
   id="svg1"
   inkscape:version="1.3.2 (091e20e, 2023-11-25, custom)"
   sodipodi:docname="logo.svg"
   xmlns:inkscape="http://www.inkscape.org/namespaces/inkscape"
   xmlns:sodipodi="http://sodipodi.sourceforge.net/DTD/sodipodi-0.dtd"
   xmlns="http://www.w3.org/2000/svg"
   xmlns:svg="http://www.w3.org/2000/svg">
  <sodipodi:namedview
     id="namedview1"
     pagecolor="#ffffff"
     bordercolor="#000000"
     borderopacity="0.25"
     inkscape:showpageshadow="2"
     inkscape:pageopacity="0.0"
     inkscape:pagecheckerboard="0"
     inkscape:deskcolor="#d1d1d1"
     inkscape:document-units="mm"
     inkscape:zoom="0.22672208"
     inkscape:cx="-121.29388"
     inkscape:cy="403.57781"
     inkscape:window-width="1366"
     inkscape:window-height="705"
     inkscape:window-x="-8"
     inkscape:window-y="-8"
     inkscape:window-maximized="1"
     inkscape:current-layer="layer1" />
  <defs
     id="defs1" />
  <g
     inkscape:label="Layer 1"
     inkscape:groupmode="layer"
     id="layer1"
     transform="translate(-3.3803877,-54.871743)">
    <path
       style="fill:#ffffff;fill-opacity:0.988235;stroke:none;stroke-width:0.171817;stroke-linejoin:round;stroke-miterlimit:4;stroke-dasharray:none;stroke-opacity:1"
       d="M 203.16423,153.23469 A 99.891924,98.362958 0 0 1 103.27231,251.59764 99.891924,98.362958 0 0 1 3.3803877,153.23469 99.891924,98.362958 0 0 1 103.27231,54.871743 99.891924,98.362958 0 0 1 203.16423,153.23469 Z"
       id="path1970"
       inkscape:connector-curvature="0" />
    <path
       style="fill:#1a1a1a;fill-opacity:1;stroke:none;stroke-width:0.159607;stroke-linejoin:round;stroke-miterlimit:4;stroke-dasharray:none;stroke-opacity:1"
       d="M 196.06524,153.23469 A 92.792932,91.372618 0 0 1 103.2723,244.60732 92.792932,91.372618 0 0 1 10.479381,153.23469 92.792932,91.372618 0 0 1 103.2723,61.862074 92.792932,91.372618 0 0 1 196.06524,153.23469 Z"
       id="path1970-1"
       inkscape:connector-curvature="0" />
    <ellipse
       style="fill:#1a1a1a;fill-opacity:0;stroke:none;stroke-width:0.144845;stroke-linejoin:round;stroke-miterlimit:4;stroke-dasharray:none;stroke-opacity:1"
       id="path1970-5"
       cx="99.217987"
       cy="145.23473"
       rx="84.210777"
       ry="82.921814" />
    <g
       id="g2002"
       transform="matrix(0.0750879,0,0,0.06979325,128.34582,116.04583)">
      <path
         transform="matrix(0.48818935,0,0,0.46529551,-354.60765,-473.02387)"
         inkscape:transform-center-y="-15.328621"
         inkscape:transform-center-x="-0.23174705"
         d="M 187.75113,199.80742 72.206227,200.62963 -43.338675,201.45183 13.721722,100.97589 70.782128,0.49997517 129.26664,100.15369 Z"
         inkscape:randomized="0"
         inkscape:rounded="0"
         inkscape:flatsided="false"
         sodipodi:arg2="1.5636806"
         sodipodi:arg1="0.516483"
         sodipodi:r2="66.711578"
         sodipodi:r1="133.42314"
         sodipodi:cy="133.91974"
         sodipodi:cx="71.731529"
         sodipodi:sides="3"
         id="path1490"
         style="opacity:1;fill:#4d4d4d;fill-opacity:0.980296;stroke:none;stroke-width:1.36579;stroke-linejoin:round;stroke-miterlimit:4;stroke-dasharray:none;stroke-opacity:1"
         sodipodi:type="star" />
      <rect
         y="-371.60406"
         x="-380.36569"
         height="415.20087"
         width="120.76481"
         id="rect1492"
         style="fill:#0652dd;fill-opacity:1;fill-rule:evenodd;stroke-width:0.510482" />
      <g
         style="fill:#4d4d4d;fill-opacity:0.980296"
         transform="matrix(0.21839105,0,0,0.21839105,-227.68164,-82.813936)"
         id="g1513">
        <rect
           style="fill:#4d4d4d;fill-opacity:0.980296;fill-rule:evenodd;stroke-width:2.35138"
           id="rect1494"
           width="508.88135"
           height="100.65785"
           x="-676.29004"
           y="611.03522"
           ry="50.328926"
           rx="25.915251" />
        <rect
           style="fill:#4d4d4d;fill-opacity:0.980296;fill-rule:evenodd;stroke-width:1.82457"
           id="rect1494-5"
           width="508.88135"
           height="60.606991"
           x="-676.2901"
           y="608.57428"
           ry="0"
           rx="0" />
      </g>
      <circle
         r="40.254932"
         cy="-284.36368"
         cx="-320.17059"
         id="path1515"
         style="opacity:1;fill:#1a1a1a;fill-opacity:1;stroke:none;stroke-width:0.474063;stroke-linejoin:round;stroke-miterlimit:4;stroke-dasharray:none;stroke-opacity:1" />
      <circle
         r="31.628872"
         cy="-284.7558"
         cx="-320.56274"
         id="path1515-5"
         style="opacity:1;fill:#4d4d4d;fill-opacity:0.980296;stroke:none;stroke-width:0.372478;stroke-linejoin:round;stroke-miterlimit:4;stroke-dasharray:none;stroke-opacity:1" />
      <path
         style="opacity:1;fill:#fdfdff;fill-opacity:0.988235;stroke:none;stroke-width:0.211763;stroke-linejoin:round;stroke-miterlimit:4;stroke-dasharray:none;stroke-opacity:0.996078"
         inkscape:transform-center-x="-0.002864384"
         inkscape:transform-center-y="0.0022323665"
         d="m -620.44438,-225.98387 c -3.89808,0.9914 -8.21609,-14.37057 -11.60362,-16.51969 -3.38755,-2.14914 -20.01341,-0.0743 -20.90608,-4.10501 -0.89261,-4.03075 15.49543,-8.57634 17.62049,-12.12736 2.12515,-3.55109 -1.1241,-20.96047 2.77391,-21.95179 3.89808,-0.99141 9.70558,16.11453 13.09311,18.26365 3.38755,2.14914 18.52388,-1.66951 19.4166,2.36106 0.89267,4.03066 -13.22883,8.47301 -15.35395,12.02412 -2.12506,3.55103 -1.14244,21.0637 -5.04046,22.05502 z"
         id="path2143"
         inkscape:connector-curvature="0"
         sodipodi:nodetypes="sccssccss" />
      <path
         sodipodi:nodetypes="sccssccss"
         inkscape:connector-curvature="0"
         id="path2146"
         d="m -166.58349,-80.734251 c -3.89808,0.99141 -8.21608,-14.37057 -11.60361,-16.51969 -3.38755,-2.14914 -20.01342,-0.0743 -20.90608,-4.105009 -0.89262,-4.03075 15.49542,-8.57634 17.62048,-12.12736 2.12515,-3.55109 -1.12409,-20.96047 2.77393,-21.9518 3.89807,-0.99141 9.70557,16.11454 13.09309,18.26366 3.38756,2.14914 18.5239,-1.66951 19.41662,2.36105 0.89266,4.03066 -13.22885,8.47302 -15.35396,12.02414 -2.12506,3.551019 -1.14244,21.063699 -5.04047,22.055009 z"
         inkscape:transform-center-y="0.0022313024"
         inkscape:transform-center-x="-0.0028688903"
         style="opacity:1;fill:#fdfdff;fill-opacity:0.988235;stroke:none;stroke-width:0.211763;stroke-linejoin:round;stroke-miterlimit:4;stroke-dasharray:none;stroke-opacity:0.996078" />
      <path
         style="opacity:1;fill:#fdfdff;fill-opacity:0.988235;stroke:none;stroke-width:0.211763;stroke-linejoin:round;stroke-miterlimit:4;stroke-dasharray:none;stroke-opacity:0.996078"
         inkscape:transform-center-x="-0.0028514179"
         inkscape:transform-center-y="0.0022295358"
         d="m -50.05387,-585.97264 c -3.89805,0.99142 -8.21611,-14.37058 -11.60359,-16.51967 -3.38756,-2.14915 -20.01342,-0.0744 -20.90609,-4.10501 -0.89261,-4.03076 15.49542,-8.57634 17.62048,-12.12736 2.12515,-3.55109 -1.12409,-20.96047 2.77392,-21.9518 3.89808,-0.99141 9.70558,16.11454 13.0931,18.26366 3.38758,2.14916 18.52391,-1.6695 19.41658,2.36103 0.89268,4.03067 -13.22882,8.47303 -15.35389,12.02418 -2.12509,3.551 -1.14244,21.06368 -5.04051,22.05497 z"
         id="path2148"
         inkscape:connector-curvature="0"
         sodipodi:nodetypes="sccssccss" />
      <path
         sodipodi:nodetypes="sccssccss"
         inkscape:connector-curvature="0"
         id="path2150"
         d="m -999.83342,897.2999 c -3.89808,0.9914 -8.21608,-14.37057 -11.60358,-16.51969 -3.3876,-2.14914 -20.0135,-0.0744 -20.9061,-4.10501 -0.8926,-4.03075 15.4954,-8.57634 17.6205,-12.12736 2.1251,-3.55109 -1.1241,-20.96047 2.7739,-21.95179 3.8981,-0.99141 9.7056,16.11453 13.09309,18.26365 3.38755,2.14914 18.52389,-1.66951 19.41661,2.36106 0.89266,4.03065 -13.22884,8.47302 -15.35396,12.02413 -2.12506,3.55102 -1.14243,21.06369 -5.04046,22.05501 z"
         inkscape:transform-center-y="0.0022363486"
         inkscape:transform-center-x="-0.0028688912"
         style="opacity:1;fill:#fdfdff;fill-opacity:0.988235;stroke:none;stroke-width:0.211763;stroke-linejoin:round;stroke-miterlimit:4;stroke-dasharray:none;stroke-opacity:0.996078" />
      <path
         style="opacity:1;fill:#fdfdff;fill-opacity:0.988235;stroke:none;stroke-width:0.211763;stroke-linejoin:round;stroke-miterlimit:4;stroke-dasharray:none;stroke-opacity:0.996078"
         inkscape:transform-center-x="-0.0028639685"
         inkscape:transform-center-y="0.0022488492"
         d="m -1008.412,192.49638 c -3.898,0.99141 -8.2161,-14.37057 -11.6036,-16.51968 -3.3875,-2.14915 -20.0134,-0.0744 -20.9061,-4.10502 -0.8926,-4.03075 15.4955,-8.57635 17.6205,-12.12737 2.1252,-3.55109 -1.1241,-20.96047 2.7739,-21.95179 3.8981,-0.99145 9.7056,16.11454 13.0931,18.26366 3.3876,2.14914 18.52396,-1.66955 19.41668,2.36102 0.89264,4.03069 -13.22888,8.47306 -15.35398,12.02417 -2.1251,3.55102 -1.1424,21.0637 -5.0405,22.05501 z"
         id="path2152"
         inkscape:connector-curvature="0"
         sodipodi:nodetypes="sccssccss" />
      <path
         sodipodi:nodetypes="sccssccss"
         inkscape:connector-curvature="0"
         id="path2154"
         d="m 165.58092,710.87474 c -2.48964,3.37584 -14.7233,-5.80791 -18.6201,-5.23796 -3.89687,0.56986 -15.75545,13.27749 -18.77686,10.70751 -3.02125,-2.56986 7.22845,-17.05857 6.85267,-21.26253 -0.3758,-4.20408 -12.949,-15.70742 -10.45928,-19.08308 2.4897,-3.37576 16.89673,6.18463 20.7936,5.61476 3.8968,-0.56994 13.58231,-13.65382 16.60348,-11.08428 3.02118,2.56979 -5.50852,15.46714 -5.1326,19.67125 0.37578,4.20397 11.22892,17.29871 8.73909,20.67433 z"
         inkscape:transform-center-y="0.0044202964"
         inkscape:transform-center-x="-0.023959365"
         style="opacity:1;fill:#fdfdff;fill-opacity:0.988235;stroke:none;stroke-width:0.211763;stroke-linejoin:round;stroke-miterlimit:4;stroke-dasharray:none;stroke-opacity:0.996078" />
      <path
         style="opacity:1;fill:#fdfdff;fill-opacity:0.988235;stroke:none;stroke-width:0.211763;stroke-linejoin:round;stroke-miterlimit:4;stroke-dasharray:none;stroke-opacity:0.996078"
         inkscape:transform-center-x="-0.00018653063"
         inkscape:transform-center-y="0.00017267532"
         d="m 517.73203,416.37761 c -3.99746,0.27382 -5.85905,-15.64972 -8.86352,-18.37977 -3.00446,-2.73005 -19.71823,-3.68508 -19.96981,-7.81978 -0.25151,-4.13475 16.6131,-5.65831 19.26167,-8.77555 2.64872,-3.11724 2.15996,-20.8663 6.15729,-21.14012 3.99739,-0.2739 7.05549,17.63775 10.05996,20.3678 3.00446,2.73005 18.52171,1.69716 18.77337,5.83175 0.25152,4.1346 -14.36253,5.96549 -17.01117,9.0828 -2.64865,3.11717 -4.41046,20.55905 -8.40779,20.83287 z"
         id="path2156"
         inkscape:connector-curvature="0"
         sodipodi:nodetypes="sccssccss" />
      <path
         style="opacity:1;fill:#fdfdff;fill-opacity:0.988235;stroke:none;stroke-width:0.211763;stroke-linejoin:round;stroke-miterlimit:4;stroke-dasharray:none;stroke-opacity:0.996078"
         inkscape:transform-center-x="-0.00056404707"
         inkscape:transform-center-y="0.0022303123"
         d="m 396.95651,-155.35514 c -4.01696,0.99141 -6.49293,-14.37057 -9.62275,-16.51969 -3.12986,-2.14914 -20.0045,-0.0744 -20.41386,-4.10501 -0.40929,-4.03075 16.52381,-8.57634 19.07467,-12.12736 2.55095,-3.55109 1.38925,-20.96047 5.40613,-21.9518 4.01695,-0.99141 7.7733,16.11454 10.90313,18.26366 3.12985,2.14914 18.72408,-1.66951 19.1335,2.36105 0.40934,4.03066 -14.24484,8.47303 -16.79577,12.02414 -2.55086,3.55102 -3.66816,21.0637 -7.68505,22.05501 z"
         id="path2158"
         inkscape:connector-curvature="0"
         sodipodi:nodetypes="sccssccss" />
      <path
         sodipodi:nodetypes="sccssccss"
         inkscape:connector-curvature="0"
         id="path2160"
         d="m -601.39822,577.46873 c -3.89808,0.99141 -8.21608,-14.37057 -11.60361,-16.51969 -3.38755,-2.14914 -20.01342,-0.0743 -20.90608,-4.10501 -0.89262,-4.03075 15.49542,-8.57634 17.62048,-12.12737 2.12515,-3.55108 -1.12409,-20.96047 2.77393,-21.95179 3.89807,-0.99141 9.70557,16.11454 13.09309,18.26366 3.38756,2.14914 18.5239,-1.66951 19.41662,2.36105 0.89266,4.03066 -13.22885,8.47302 -15.35396,12.02413 -2.12506,3.55103 -1.14244,21.0637 -5.04047,22.05502 z"
         inkscape:transform-center-y="0.0022334937"
         inkscape:transform-center-x="-0.0028685207"
         style="opacity:1;fill:#fdfdff;fill-opacity:0.988235;stroke:none;stroke-width:0.211763;stroke-linejoin:round;stroke-miterlimit:4;stroke-dasharray:none;stroke-opacity:0.996078" />
    </g>
    <path
       style="fill:#ffffff;fill-opacity:0.394089;stroke:#000000;stroke-width:0.0284758px;stroke-linecap:butt;stroke-linejoin:miter;stroke-opacity:1"
       d="m 102.17339,122.66615 c 0,0 -2.409998,80.03536 -4.73539,111.97413 -2.835169,38.9404 -1.00251,11.88058 -1.00251,11.88058 l 7.92844,0.36438 7.6734,-0.36438 c 0,0 2.08767,27.05982 -0.7475,-11.88058 -2.32539,-31.93877 -4.73539,-111.97413 -4.73539,-111.97413 l -2.19051,0.49783 z"
       id="path2122"
       inkscape:connector-curvature="0"
       sodipodi:nodetypes="cscccsccc" />
    <path
       inkscape:connector-curvature="0"
       id="path2117"
       d="m 103.20867,123.0277 c 0,0 0.59004,35.2403 -0.24769,66.55289 -1.02135,38.17694 0.0811,-5.0889 0.0811,-5.0889 l 0.35646,10.55124 1.1681,13.48162 1.18443,-13.53068 0.47398,-10.65967 c 0,0 0.57769,43.28267 0.0346,5.09592 -0.44547,-31.32063 -0.77341,-66.47707 -0.77341,-66.47707 l -1.01851,-0.009 z"
       style="fill:#ffece8;fill-opacity:1;stroke:#000000;stroke-width:0.0147958;stroke-linecap:butt;stroke-linejoin:miter;stroke-miterlimit:4;stroke-dasharray:none;stroke-opacity:1"
       sodipodi:nodetypes="cscccccsccc" />
  </g>
</svg>
