<?xml version="1.0" standalone="no"?>
<!DOCTYPE svg PUBLIC "-//W3C//DTD SVG 20010904//EN"
 "http://www.w3.org/TR/2001/REC-SVG-20010904/DTD/svg10.dtd">
<svg version="1.0" xmlns="http://www.w3.org/2000/svg"
 width="759.000000pt" height="759.000000pt" viewBox="0 0 759.000000 759.000000"
 preserveAspectRatio="xMidYMid meet">
<metadata>
Created by potrace 1.14, written by Peter Selinger 2001-2017
</metadata>
<g transform="translate(0.000000,759.000000) scale(0.100000,-0.100000)"
fill="#000000" stroke="none">
<path d="M3547 7583 c-3 -2 -33 -6 -68 -8 -94 -6 -184 -17 -289 -34 -102 -17
-123 -21 -155 -28 -16 -4 -32 -7 -35 -8 -15 -3 -86 -19 -95 -21 -35 -8 -102
-25 -110 -28 -5 -1 -30 -8 -55 -15 -85 -24 -145 -43 -165 -52 -12 -6 -27 -11
-35 -13 -31 -4 -165 -60 -172 -70 -4 -6 -8 -8 -8 -4 0 4 -24 -2 -52 -13 -79
-31 -398 -191 -398 -199 0 -4 -10 -10 -22 -14 -24 -6 -172 -98 -220 -135 -14
-12 -30 -21 -35 -21 -5 0 -23 -13 -41 -29 -17 -17 -32 -28 -32 -25 0 6 -224
-171 -280 -221 -128 -115 -340 -335 -415 -430 -22 -27 -42 -52 -45 -55 -3 -3
-29 -36 -57 -75 -29 -38 -59 -77 -68 -86 -8 -9 -15 -19 -15 -22 0 -7 -78 -127
-105 -162 -8 -10 -15 -25 -15 -32 0 -7 -4 -13 -9 -13 -5 0 -11 -8 -14 -17 -4
-10 -18 -38 -33 -63 -48 -80 -144 -270 -144 -285 0 -8 -4 -15 -10 -15 -5 0
-10 -8 -10 -18 0 -10 -4 -22 -8 -28 -28 -32 -166 -419 -156 -436 3 -4 1 -8 -4
-8 -5 0 -9 -6 -10 -12 0 -7 -8 -38 -16 -68 -9 -30 -18 -68 -21 -84 -3 -16 -8
-32 -10 -35 -2 -4 -6 -26 -10 -50 -3 -24 -10 -53 -14 -65 -5 -11 -6 -27 -4
-33 3 -7 1 -13 -4 -13 -4 0 -9 -15 -10 -33 0 -17 -6 -62 -12 -99 -12 -75 -19
-130 -28 -238 -9 -99 -9 -554 0 -605 4 -22 10 -76 13 -120 3 -43 9 -87 14 -96
5 -9 7 -18 5 -21 -6 -5 5 -70 40 -233 23 -108 23 -110 25 -110 1 0 3 -7 5 -15
9 -43 37 -148 44 -165 11 -26 42 -120 45 -137 2 -7 7 -22 11 -33 4 -11 21 -54
37 -95 16 -41 35 -88 43 -105 7 -16 20 -48 30 -70 34 -80 124 -252 174 -335
28 -47 58 -100 66 -117 8 -18 20 -33 25 -33 6 0 10 -5 10 -10 0 -11 45 -83 68
-110 8 -8 31 -40 53 -70 47 -64 78 -106 99 -130 8 -10 31 -37 50 -61 19 -23
58 -66 86 -96 28 -29 49 -53 47 -53 -13 0 248 -245 347 -326 19 -16 37 -31 40
-34 3 -3 32 -25 65 -49 33 -25 61 -48 63 -53 2 -4 10 -8 18 -8 8 0 14 -4 14
-8 0 -5 12 -15 28 -23 15 -8 36 -22 46 -32 11 -9 25 -17 32 -17 7 0 14 -4 16
-8 4 -10 94 -72 103 -72 4 0 19 -8 33 -19 59 -40 272 -153 272 -143 0 4 4 2 8
-4 8 -13 140 -77 160 -77 6 0 12 -4 12 -8 0 -6 31 -17 69 -25 8 -1 17 -7 20
-12 3 -5 20 -12 36 -16 17 -4 44 -13 60 -21 68 -29 318 -109 380 -120 11 -2
29 -6 40 -9 100 -25 230 -51 304 -62 25 -4 55 -8 66 -11 11 -2 43 -6 70 -9 28
-3 61 -7 75 -9 123 -22 652 -22 785 0 17 2 50 6 75 9 25 2 61 6 80 10 19 3 49
8 65 10 82 12 116 19 121 27 3 5 10 7 15 3 7 -4 85 8 129 21 3 1 19 5 35 9 17
4 37 10 45 13 8 4 20 7 25 8 6 1 12 3 15 4 3 1 16 4 29 7 33 6 193 55 206 63
6 3 12 6 15 6 18 1 166 60 172 69 4 6 8 8 8 4 0 -9 65 16 180 70 47 21 87 39
90 38 3 0 19 8 35 20 17 11 59 35 95 54 36 18 77 41 92 51 14 11 29 19 32 19
4 0 19 8 34 19 15 10 54 35 87 56 33 21 62 42 65 45 3 4 12 9 20 12 8 3 46 29
83 57 37 28 72 51 77 51 6 0 10 4 10 8 0 5 35 36 78 69 118 92 317 281 422
401 19 21 49 55 65 73 17 19 46 54 65 79 19 25 38 46 42 48 5 2 8 10 8 18 0 8
4 14 9 14 4 0 21 19 37 42 16 24 55 79 87 124 31 45 57 84 57 87 0 6 64 106
80 124 6 7 8 13 4 13 -3 0 -2 6 4 13 27 33 192 359 192 379 0 3 10 27 22 54
12 27 23 51 23 54 1 3 7 18 13 33 7 15 15 40 18 55 4 15 10 32 13 37 4 6 15
37 25 70 10 33 21 67 24 75 3 8 6 18 7 23 2 4 3 8 4 10 2 1 4 13 7 27 2 14 9
36 14 50 6 14 13 36 16 50 6 32 12 59 19 88 3 12 7 31 10 43 2 11 6 28 9 37 3
9 7 33 10 52 3 19 8 46 11 60 2 13 7 42 10 65 3 22 8 51 10 65 7 41 15 111 20
179 3 34 7 67 10 72 4 5 1 9 -6 9 -8 0 -8 4 -1 13 11 13 10 414 -1 537 -14
154 -22 210 -34 260 -3 14 -7 39 -9 55 -2 17 -6 41 -9 55 -3 14 -8 41 -11 60
-6 34 -11 55 -19 95 -3 11 -16 61 -30 110 -14 50 -28 104 -31 120 -3 17 -9 35
-14 40 -4 6 -10 22 -14 37 -3 15 -11 40 -18 55 -6 15 -12 33 -13 38 -8 33 -90
231 -99 237 -6 4 -7 8 -3 8 5 0 2 12 -6 28 -7 15 -47 92 -87 172 -40 80 -81
157 -91 172 -11 14 -19 31 -19 37 0 6 -4 11 -10 11 -5 0 -10 5 -10 11 0 10
-148 237 -173 265 -28 31 -37 44 -37 50 0 4 -7 14 -15 23 -25 27 -59 67 -90
107 -72 92 -294 322 -395 409 -30 26 -66 57 -80 69 -14 12 -47 40 -75 61 -27
22 -58 47 -68 56 -9 9 -29 22 -44 30 -15 8 -34 20 -43 27 -48 42 -76 62 -87
62 -7 0 -13 4 -13 9 0 5 -13 14 -30 21 -16 7 -30 16 -30 21 0 5 -5 9 -12 9 -6
0 -25 10 -42 23 -17 13 -38 27 -46 30 -8 4 -42 23 -75 42 -59 34 -283 146
-357 179 -107 46 -164 69 -238 92 -25 8 -54 19 -65 24 -27 13 -195 62 -220 65
-11 1 -32 7 -46 13 -14 6 -39 12 -55 15 -16 3 -60 13 -99 22 -38 9 -86 18
-105 20 -19 2 -35 4 -35 5 0 2 -15 5 -65 14 -34 6 -50 8 -170 21 -30 3 -71 8
-90 11 -43 6 -578 13 -583 7z"/>
</g>
</svg>
